PathFileType	4	(X/Y/Z)	Patient4_TMGait_0pt4_01_left_24.trc.trc
DataRate	CameraRate	NumFrames	NumMarkers	Units	OrigDataRate	OrigDataStartFrame	OrigNumFrames
76.923076923077	76.923076923077	6	33	mm	76.923076923077	124	       141
Frame#	Time	Sacral			L.Shoulder			Chest			R.Shoulder			Neck			R.ASIS			L.ASIS			R.Thigh.Superior			R.Thigh.Lateral			R.Thigh.Inferior			R.Patella			L.Thigh.Superior			L.Thigh.Lateral			L.Thigh.Inferior			L.Patella			L.Shank.Superior			L.Shank.Lateral			L.Shank.Inferior			R.Shank.Superior			R.Shank.Lateral			R.Shank.Inferior			R.Heel			R.Midfoot.Superior			R.Midfoot.Lateral			R.Toe			L.Heel			L.Midfoot.Lateral			L.Midfoot.Superior			L.Toe			L.Elbow			L.Wrist			R.Elbow			R.Wrist			
		X1	Y1	Z1	X2	Y2	Z2	X3	Y3	Z3	X4	Y4	Z4	X5	Y5	Z5	X6	Y6	Z6	X7	Y7	Z7	X8	Y8	Z8	X9	Y9	Z9	X10	Y10	Z10	X11	Y11	Z11	X12	Y12	Z12	X13	Y13	Z13	X14	Y14	Z14	X15	Y15	Z15	X16	Y16	Z16	X17	Y17	Z17	X18	Y18	Z18	X19	Y19	Z19	X20	Y20	Z20	X21	Y21	Z21	X22	Y22	Z22	X23	Y23	Z23	X24	Y24	Z24	X25	Y25	Z25	X26	Y26	Z26	X27	Y27	Z27	X28	Y28	Z28	X29	Y29	Z29	X30	Y30	Z30	X31	Y31	Z31	X32	Y32	Z32	X33	Y33	Z33	

124	30.529000000000	822.348252316362	998.933151676359	504.057996305027	969.233787554041	1421.050492759441	291.159035086252	1097.286656936590	1356.596267408495	434.939859249575	1043.040636212305	1438.288666345469	616.574380914220	987.715537492420	1487.302767255317	444.703415776995	1062.035656003435	932.765056067328	594.766198524929	1017.551999971441	954.514018154179	322.594764723742	1060.975197043755	720.429574854009	564.927404592872	962.882768183206	624.765196203548	634.149284658681	1018.541817835175	560.195252182398	549.634589766772	999.326187936244	475.122143316061	554.461785545834	1095.239544342890	767.072482004480	349.678846107427	1036.511002540691	636.450644132664	280.894963136403	1141.728976379073	577.638777343409	338.203244287642	1162.764566718140	509.863645792229	338.322886330273	1142.409789001725	436.105877965296	329.636301336627	1065.180405936112	311.523736235114	281.241641418304	1144.016583632980	206.369021775536	336.998674342182	960.293822637382	390.609260667948	564.885227419538	879.881180623133	298.444168236025	634.547465323118	899.161754138637	198.958186209446	568.126048586646	744.069942408387	43.298065822849	549.841280504727	917.213410470909	95.929574469197	576.632320749384	830.479794949186	36.759103813996	620.891405757704	1038.256862304364	41.746256942001	600.394824154957	1044.561389904925	40.725727490599	379.781134783092	1116.273869529224	37.331912578420	297.812030313900	1196.753103376457	103.821622280125	318.372519526168	1325.373615200998	58.288284444946	288.559560500372	867.318343142187	1077.179535948392	203.519059031345	895.246428719483	819.111570501502	171.255266465892	1141.868327868121	1104.161533749932	724.058189159686	1358.759852650012	1058.801449759505	600.106360432977	
125	30.542000000000	823.836136966875	997.859197084628	501.268439597953	969.530245122268	1419.888586937157	288.092734464969	1097.569436948572	1356.263123253776	432.282131414851	1042.491034856826	1437.931091004613	613.722869826112	987.307357657969	1486.511886596591	441.575173785559	1063.461475444949	931.997872828839	592.847166092720	1019.746882618392	953.556248360654	320.762022705591	1061.829838550932	719.355000607742	563.308001078004	962.960143154006	624.030097722765	632.326491964880	1018.566055353876	559.059229192786	548.112321065903	998.869745610988	473.460422729033	552.975099566862	1097.524659275210	765.513948895469	348.137400749692	1037.522437231756	634.985615430628	280.467753978277	1142.630096985070	576.073897194963	337.809665397410	1162.194654368377	507.416759241172	338.766196129534	1141.333464476467	433.414118718728	329.978751668991	1062.628756323822	309.733578743910	281.474831693253	1139.315960205307	203.690471332378	338.242305970412	958.666352218007	389.495743562679	563.618247401045	877.156170706044	298.465303224178	633.743754567953	895.203839765715	198.542155861844	567.603479024525	738.827964530852	43.577017380631	549.882435942268	912.110138059132	95.919989329215	576.577796949168	825.283480447988	36.816124734135	620.836526844536	1033.098694041612	41.506467678314	600.468135291757	1036.937036000827	39.764695171790	380.991793838916	1108.338474892786	36.394783618794	298.612120418163	1189.867391104455	101.284614721293	320.029462182589	1318.016874242599	54.197949255064	289.153836951319	868.369797669406	1075.760842102211	200.818448648420	897.277269112655	817.693945480879	168.995009568184	1140.167183986398	1103.184855802525	721.243627209460	1356.060742135207	1055.759079665505	596.000150919350	
126	30.555000000000	825.247185980946	996.985263212297	498.420130447947	969.972539877993	1418.850523859949	284.892409147597	1097.978451502485	1355.995956779967	429.478536643677	1042.169667941279	1437.731625456990	610.718111207468	987.086785322126	1485.867209368656	438.288498159127	1064.793777380309	931.350263518506	590.751965533519	1021.837060943600	952.812784994359	318.780143141161	1062.867816428802	718.412361282994	561.579487075898	963.396798538036	623.297705924086	630.358948788109	1019.118303993974	558.003940836214	546.463417152608	999.109455241402	471.663451222600	551.486392828817	1099.766665254695	764.378405458110	346.883737120804	1039.138119694957	634.105931094251	279.762105377808	1143.772419774685	574.972353769604	337.588653889349	1161.980924988087	505.483028888948	339.164128793421	1140.675098554966	431.221219825898	330.156453439448	1060.787650835537	308.409602671491	281.163641226301	1135.172687119210	201.540211236633	339.179558452411	957.498457535352	388.363963601761	562.313431640774	874.718692134787	298.637242171959	632.865366918150	891.462043484850	198.233285642571	567.080364874889	733.606279690572	44.155480030711	549.928556636277	907.130055837475	95.930434711559	576.535197064423	820.115289005003	36.998922240659	620.753336824732	1027.973347998990	41.206267720661	600.545432479846	1029.950530346951	39.048793917226	381.696969947079	1101.211680456286	35.796934237192	299.072598280886	1183.516468147299	99.418424904722	321.370330839201	1311.357335180705	51.154287317430	289.758907795049	869.797288457982	1074.379622568179	197.943388449606	899.881440492988	816.333232459200	166.559125295792	1138.063534999720	1102.319026363640	718.736304508766	1352.869725714684	1051.896298546496	592.386763533675	
127	30.568000000000	826.544405422477	996.351137846030	495.534868046487	970.556711362017	1417.989500292081	281.585951806807	1098.505025868948	1355.814762600960	426.545596229551	1042.094910705828	1437.726132437807	607.575353446326	987.068729222729	1485.405509992644	434.874310272681	1065.970353298383	930.887813006062	588.492190448066	1023.763583737246	952.301719244591	316.623218666880	1064.070621331472	717.667353159989	559.755426550614	964.248531411078	622.596996861622	628.281605835534	1020.297619628586	557.072771522538	544.729105639652	1000.193987652707	469.752378956194	550.091345749406	1101.901578295836	763.702941435398	345.848250185511	1041.192882735774	633.771903076989	278.767109936822	1145.040398937369	574.296997629208	337.397130912503	1162.031030532154	504.053089709722	339.400111902293	1140.338068966208	429.524905456138	330.120449549239	1059.535609988412	307.533454746596	280.351384447497	1131.548745720527	199.924849746961	339.786428565836	956.909242727993	387.242298158078	561.037213441943	872.644457636942	299.026644162038	631.939681399300	888.021814867042	198.091929579061	566.598815790997	728.439957614844	45.178246465600	549.980124135220	902.331157659395	95.977652645592	576.521603866529	814.995375219643	37.380784764471	620.646683586084	1022.882331643630	40.848384542388	600.621524213501	1023.646769644951	38.575969001846	381.974826641242	1094.896555911741	35.479785015454	299.240435241150	1177.717958123480	98.184996070398	322.349176242444	1305.391032429749	49.101179037317	290.295774853153	871.589133046624	1073.101244038775	194.906142337586	903.046764111828	815.095742234238	163.968450210177	1135.586794380454	1101.622099158926	716.524300406840	1349.181089717674	1047.211444364630	589.299971494943	
128	30.581000000000	827.702686609645	995.974682833818	492.617022407952	971.273157915941	1417.343074328556	278.197980552147	1099.130817387232	1355.737116173638	423.506089160582	1042.250265986651	1437.937042039838	604.314032917878	987.247933395269	1485.149077963220	431.362606681510	1066.938570171879	930.661898676024	586.090017337713	1025.496196659777	952.019574357359	314.278909008421	1065.433420759322	717.179827806056	557.856617702732	965.580048848163	621.956505635352	626.138393395883	1022.207983161303	556.306274482867	542.960083402255	1002.267065913811	467.762659604046	548.889606995622	1103.870786379124	763.457279663909	344.911780023373	1043.444326366519	633.877158469171	277.500263466227	1146.278819860831	573.951196158690	337.084933494365	1162.196675890973	503.053461260350	339.385135867324	1140.160341517040	428.264603634354	329.851726757855	1058.651892595866	307.035835261592	279.148451004832	1128.318002954161	198.789880213178	340.083385992913	957.030917682795	386.164951577535	559.859138113878	871.028283357360	299.706868150628	630.996783692175	884.985230788964	198.187579007195	566.202249654871	723.383554365467	46.812965641853	550.036584775779	897.781772493406	96.087610696978	576.554544018077	809.953962538263	38.054292092815	620.523562421773	1017.825134143844	40.440733139829	600.689400485314	1017.957098275237	38.316374465336	381.930230570990	1089.278842040761	35.369066651638	299.181887454561	1172.397384385774	97.486160020463	322.973062723498	1300.012481291579	47.888815399915	290.714314323910	873.724270384416	1071.979252534632	191.712561967777	906.770988652423	814.039724668769	161.240394643984	1132.755442650884	1101.141759902997	714.582952972176	1344.968617331977	1041.713380406527	586.776889747183	
129	30.594000000000	828.705456088872	995.852733405073	489.655202287668	972.110960778264	1416.928156439278	274.746444868839	1099.829336808185	1355.776778924245	420.388573859010	1042.583200782773	1438.370661077586	600.956617101745	987.600817869896	1485.103596431876	427.777591879617	1067.658358900411	930.699775644275	583.579849826327	1027.031555843847	951.945716747842	311.757053825920	1066.976197846806	716.998681829367	555.910274197951	967.467166464582	621.400988449507	623.974885037954	1024.955381535270	555.740497986964	541.206795672061	1005.457181923310	465.744866162082	547.962953683655	1105.621159149757	763.546406325515	343.918106062078	1045.593614400956	634.268621043819	276.003382304019	1147.306744427008	573.801708235003	336.519608940666	1162.292999585137	502.375324731748	339.071496146316	1139.941332510874	427.346504660848	329.357781361764	1057.867042493545	306.816836228727	277.701994410117	1125.306576127186	198.043016598607	340.121905279486	958.002419970110	385.171841801926	558.837749588176	869.986580682028	300.754218042104	630.062687687007	882.467909971121	198.597064266517	565.926536559812	718.514488249479	49.244208191846	550.095093827941	893.558480969791	96.298864422091	576.648550030894	805.033540743654	39.132447837959	620.390872682818	1012.800382873313	39.994821064503	600.741096913517	1012.743462083168	38.222539071004	381.674502966748	1084.178719503670	35.389408693752	298.969595549029	1167.427675202218	97.191787996046	323.289314982220	1295.060810181640	47.318017997358	290.994510351930	876.174427290669	1071.048890129890	188.361361550184	911.061933866747	813.209824117447	158.387713980955	1129.573075608854	1100.909410229391	712.876658275746	1340.181935073083	1035.419627282489	584.860958596660	
